:FULLY-SPECIFIED
:FORCE-ALL-JOINTS-BE-3DOF
:DEGREES
272
root 8.31764 15.6699 -24.8906 30.4726 63.9266 29.8506
lfemur -24.6448 14.7198 -18.8213
ltibia 50.7745 0 0
lfoot -15.3387 -19.3666 0
ltoes 46.1001 0 0
rfemur -29.4412 0.428399 13.6792
rtibia 48.0105 0 0
rfoot -9.1558 -23.4498 0
rtoes 47.2047 0 0
lowerback 4.56504 -4.66674 -3.10294
upperback 2.33762 -6.29401 -1.08728
thorax 0.109004 -3.1464 0.890474
lowerneck -5.18764 -9.78488 -4.0221
upperneck 2.82211 -13.1138 4.67426
head 2.59931 -6.49361 1.6476
lclavicle -6.18899e-15 1.72167e-14 0
lhumerus -47.5281 -38.298 111.045
lradius 61.2322 0 0
lwrist 16.4094 0 0
lhand 12.3 13.0957 0
lfingers 7.12502 0 0
lthumb 37.279 38.8692 0
rclavicle -6.18899e-15 1.72167e-14 0
rhumerus -57.3585 2.5895 -87.7001
rradius 66.8698 0 0
rwrist 15.7098 0 0
rhand -24.1172 -13.9458 0
rfingers 7.12502 0 0
rthumb 2.3628 -763.821 0
273
root 8.38672 15.6579 -24.8578 31.3424 64.8789 31.2493
lfemur -24.0389 14.2392 -19.0193
ltibia 50.8958 0 0
lfoot -15.2228 -20.1653 0
ltoes 46.5869 0 0
rfemur -30.2347 0.310171 14.0913
rtibia 48.3776 0 0
rfoot -8.06557 -23.1595 0
rtoes 46.905 0 0
lowerback 4.74161 -4.73387 -3.29693
upperback 2.48553 -6.38923 -1.26718
thorax 0.167705 -3.19425 0.82321
lowerneck -5.00523 -9.95924 -4.17076
upperneck 2.84497 -13.3496 4.83571
head 2.6061 -6.61045 1.71788
lclavicle -5.55991e-15 1.72216e-14 0
lhumerus -47.2265 -38.5124 110.604
lradius 61.1767 0 0
lwrist 16.3835 0 0
lhand 12.6068 13.1252 0
lfingers 7.12502 0 0
lthumb 37.5694 38.8263 0
rclavicle -5.55991e-15 1.72216e-14 0
rhumerus -58.0484 3.3529 -88.6523
rradius 67.0981 0 0
rwrist 15.7275 0 0
rhand -24.4377 -13.4801 0
rfingers 7.12502 0 0
rthumb 2.05334 -763.361 0
274
root 8.4558 15.6458 -24.825 32.2122 65.8313 32.648
lfemur -23.4329 13.7585 -19.2173
ltibia 51.0172 0 0
lfoot -15.1069 -20.964 0
ltoes 47.0737 0 0
rfemur -31.0282 0.191943 14.5033
rtibia 48.7448 0 0
rfoot -6.97533 -22.8692 0
rtoes 46.6053 0 0
lowerback 4.91817 -4.801 -3.49093
upperback 2.63344 -6.48446 -1.44709
thorax 0.226406 -3.2421 0.755945
lowerneck -4.82282 -10.1336 -4.31941
upperneck 2.86782 -13.5854 4.99715
head 2.61288 -6.7273 1.78817
lclavicle -4.93083e-15 1.72264e-14 0
lhumerus -46.925 -38.7269 110.162
lradius 61.1212 0 0
lwrist 16.3576 0 0
lhand 12.9136 13.1547 0
lfingers 7.12502 0 0
lthumb 37.8599 38.7833 0
rclavicle -4.93083e-15 1.72264e-14 0
rhumerus -58.7384 4.1163 -89.6046
rradius 67.3264 0 0
rwrist 15.7453 0 0
rhand -24.7582 -13.0145 0
rfingers 7.12502 0 0
rthumb 1.74389 -762.901 0
275
root 8.52488 15.6337 -24.7923 33.0821 66.7836 34.0467
lfemur -22.827 13.2779 -19.4153
ltibia 51.1386 0 0
lfoot -14.991 -21.7627 0
ltoes 47.5605 0 0
rfemur -31.8216 0.0737146 14.9154
rtibia 49.112 0 0
rfoot -5.8851 -22.5789 0
rtoes 46.3057 0 0
lowerback 5.09474 -4.86812 -3.68492
upperback 2.78135 -6.57968 -1.627
thorax 0.285107 -3.28995 0.688681
lowerneck -4.64042 -10.308 -4.46806
upperneck 2.89067 -13.8212 5.1586
head 2.61967 -6.84414 1.85846
lclavicle -4.30175e-15 1.72313e-14 0
lhumerus -46.6234 -38.9414 109.72
lradius 61.0658 0 0
lwrist 16.3317 0 0
lhand 13.2204 13.1842 0
lfingers 7.12502 0 0
lthumb 38.1503 38.7404 0
rclavicle -4.30175e-15 1.72313e-14 0
rhumerus -59.4283 4.8797 -90.5568
rradius 67.5548 0 0
rwrist 15.763 0 0
rhand -25.0787 -12.5488 0
rfingers 7.12502 0 0
rthumb 1.43443 -762.441 0
276
root 8.59396 15.6216 -24.7595 33.9519 67.736 35.4454
lfemur -22.221 12.7973 -19.6132
ltibia 51.2599 0 0
lfoot -14.8751 -22.5613 0
ltoes 48.0472 0 0
rfemur -32.6151 -0.0445134 15.3274
rtibia 49.4792 0 0
rfoot -4.79486 -22.2886 0
rtoes 46.006 0 0
lowerback 5.27131 -4.93525 -3.87891
upperback 2.92925 -6.6749 -1.80691
thorax 0.343808 -3.33781 0.621417
lowerneck -4.45801 -10.4823 -4.61671
upperneck 2.91352 -14.0569 5.32004
head 2.62646 -6.96098 1.92875
lclavicle -3.67267e-15 1.72361e-14 0
lhumerus -46.3219 -39.1559 109.278
lradius 61.0103 0 0
lwrist 16.3058 0 0
lhand 13.5271 13.2137 0
lfingers 7.12502 0 0
lthumb 38.4408 38.6975 0
rclavicle -3.67267e-15 1.72361e-14 0
rhumerus -60.1182 5.6431 -91.5091
rradius 67.7831 0 0
rwrist 15.7807 0 0
rhand -25.3992 -12.0832 0
rfingers 7.12502 0 0
rthumb 1.12497 -761.981 0
277
root 8.66304 15.6095 -24.7267 34.8217 68.6883 36.8441
lfemur -21.6151 12.3167 -19.8112
ltibia 51.3813 0 0
lfoot -14.7592 -23.36 0
ltoes 48.534 0 0
rfemur -33.4086 -0.162741 15.7394
rtibia 49.8464 0 0
rfoot -3.70462 -21.9983 0
rtoes 45.7063 0 0
lowerback 5.44787 -5.00238 -4.0729
upperback 3.07716 -6.77013 -1.98681
thorax 0.402509 -3.38566 0.554153
lowerneck -4.2756 -10.6567 -4.76537
upperneck 2.93637 -14.2927 5.48149
head 2.63324 -7.07782 1.99904
lclavicle -3.04359e-15 1.7241e-14 0
lhumerus -46.0203 -39.3703 108.837
lradius 60.9548 0 0
lwrist 16.2799 0 0
lhand 13.8339 13.2432 0
lfingers 7.12502 0 0
lthumb 38.7312 38.6546 0
rclavicle -3.04359e-15 1.7241e-14 0
rhumerus -60.8082 6.4065 -92.4613
rradius 68.0114 0 0
rwrist 15.7985 0 0
rhand -25.7197 -11.6175 0
rfingers 7.12502 0 0
rthumb 0.815517 -761.521 0
278
root 8.73213 15.5974 -24.694 35.6915 69.6407 38.2428
lfemur -21.0091 11.836 -20.0092
ltibia 51.5027 0 0
lfoot -14.6434 -24.1587 0
ltoes 49.0208 0 0
rfemur -34.202 -0.28097 16.1515
rtibia 50.2136 0 0
rfoot -2.61439 -21.708 0
rtoes 45.4067 0 0
lowerback 5.62444 -5.06951 -4.26689
upperback 3.22507 -6.86535 -2.16672
thorax 0.46121 -3.43351 0.486888
lowerneck -4.09319 -10.831 -4.91402
upperneck 2.95922 -14.5285 5.64293
head 2.64003 -7.19466 2.06933
lclavicle -2.4145e-15 1.72458e-14 0
lhumerus -45.7188 -39.5848 108.395
lradius 60.8994 0 0
lwrist 16.254 0 0
lhand 14.1407 13.2727 0
lfingers 7.12502 0 0
lthumb 39.0217 38.6116 0
rclavicle -2.4145e-15 1.72458e-14 0
rhumerus -61.4981 7.1699 -93.4136
rradius 68.2397 0 0
rwrist 15.8162 0 0
rhand -26.0402 -11.1519 0
rfingers 7.12502 0 0
rthumb 0.506061 -761.06 0
